<svg t="1740827821243" class="icon" viewBox="0 0 1024 1024" version="1.1" xmlns="http://www.w3.org/2000/svg" p-id="1509" width="200" height="200"><path d="M906.251378 139.628089c51.962311 51.985067 51.962311 136.226133 0 188.177067L718.074311 139.628089c51.950933-51.962311 136.214756-51.962311 188.177067 0z m0 0" fill="#87D9FF" p-id="1510"></path><path d="M864.290133 525.232356c0 192.728178-156.251022 348.933689-348.933689 348.933688-192.728178 0-348.933689-156.216889-348.933688-348.933688 0-192.762311 156.205511-348.933689 348.933688-348.933689 192.682667 0 348.933689 156.171378 348.933689 348.933689z m-89.144889 0c0-143.473778-116.3264-259.834311-259.800177-259.834312-143.507911 0-259.834311 116.349156-259.834311 259.834312s116.3264 259.800178 259.834311 259.800177c143.473778-0.011378 259.800178-116.3264 259.800177-259.800177z m0 0" fill="#8B8BE8" p-id="1511"></path><path d="M555.667911 524.561067c0-10.513067-4.175644-20.5824-11.593955-28.023467a39.571911 39.571911 0 0 0-28.023467-11.593956c-0.238933 0-0.455111 0-0.705422 0.034134-21.515378 0.329956-38.912 17.92-38.912 39.583289 0 21.879467 17.772089 39.617422 39.617422 39.617422 21.617778 0.011378 39.253333-17.328356 39.583289-38.946133 0.034133-0.216178 0.034133-0.466489 0.034133-0.671289z m-40.322844-259.163023c143.473778 0 259.800178 116.349156 259.800177 259.834312S658.830222 785.021156 515.345067 785.021156c-143.507911 0-259.834311-116.315022-259.834311-259.800178s116.337778-259.822933 259.834311-259.822934z m0 0" fill="#FFB578" p-id="1512"></path><path d="M305.2544 139.628089l-188.188444 188.188444c-51.985067-51.962311-51.985067-136.192 0-188.177066 51.962311-51.973689 136.226133-51.973689 188.188444-0.011378z m0 0" fill="#FF809D" p-id="1513"></path><path d="M515.345067 895.499378c-204.162844 0-370.267022-166.104178-370.267023-370.267022S311.182222 154.965333 515.345067 154.965333s370.2784 166.104178 370.2784 370.267023-166.104178 370.267022-370.2784 370.267022z m0-697.878756c-180.644978 0-327.600356 146.966756-327.600356 327.600356s146.966756 327.600356 327.600356 327.600355c180.644978 0 327.600356-146.955378 327.600355-327.600355 0.011378-180.6336-146.955378-327.600356-327.600355-327.600356z m0 0" fill="#4F46A3" p-id="1514"></path><path d="M515.345067 806.365867c-155.0336 0-281.156267-126.111289-281.156267-281.122134 0-155.0336 126.122667-281.167644 281.156267-281.167644 155.022222 0 281.133511 126.134044 281.133511 281.167644 0 154.999467-126.111289 281.122133-281.133511 281.122134z m0-519.634489c-131.515733 0-238.4896 106.985244-238.4896 238.500978 0 131.492978 106.985244 238.466844 238.4896 238.466844 131.492978 0 238.466844-106.973867 238.466844-238.466844 0-131.504356-106.973867-238.500978-238.466844-238.500978z m0 0" fill="#4F46A3" p-id="1515"></path><path d="M515.345067 546.565689c-11.776 0-21.333333-9.545956-21.333334-21.333333V337.567289c-0.011378-11.776 9.534578-21.344711 21.310578-21.356089 11.776-0.011378 21.344711 9.534578 21.356089 21.321956v187.6992c0 11.776-9.545956 21.321956-21.333333 21.333333z m0 0" fill="#4F46A3" p-id="1516"></path><path d="M641.8432 546.565689H515.345067c-11.776 0-21.333333-9.545956-21.333334-21.333333s9.545956-21.333333 21.333334-21.333334h126.498133c11.787378 0 21.333333 9.545956 21.333333 21.333334 0.011378 11.776-9.545956 21.333333-21.333333 21.333333z m0 0" fill="#4F46A3" p-id="1517"></path><path d="M516.050489 585.511822c-33.609956 0-60.950756-27.3408-60.950756-60.950755 0-32.824889 26.476089-59.995022 59.175823-60.905245 0.568889-0.034133 1.149156-0.056889 1.763555-0.056889 33.609956 0 60.950756 27.3408 60.950756 60.950756 0 0.489244-0.011378 1.080889-0.056889 1.752178-0.898844 32.722489-28.0576 59.209956-60.882489 59.209955z m0.364089-79.234844c-0.238933 0.011378-0.489244 0.022756-0.728178 0.022755-9.887289 0.159289-17.92 8.351289-17.92 18.261334 0.011378 10.092089 8.192 18.272711 18.284089 18.284089 9.910044 0 18.102044-8.055467 18.261333-17.942756l0.022756-0.705422c-0.216178-9.807644-8.112356-17.7152-17.92-17.92zM168.982756 943.251911c-7.645867 0-14.711467-4.107378-18.511645-10.740622a21.348124 21.348124 0 0 1 0.136533-21.4016l87.096889-148.081778c2.8672-4.869689 7.554844-8.408178 13.038934-9.8304 5.472711-1.422222 11.286756-0.603022 16.167822 2.264178 10.148978 5.973333 13.539556 19.0464 7.5776 29.195378L187.392 932.738844a21.34016 21.34016 0 0 1-18.409244 10.513067z m690.028088 0c-7.566222 0.011378-14.574933-3.9936-18.409244-10.513067l-87.096889-148.081777c-2.8672-4.881067-3.6864-10.695111-2.264178-16.167823 1.422222-5.472711 4.949333-10.160356 9.8304-13.027555 10.148978-5.973333 23.222044-2.582756 29.195378 7.554844v0.011378l87.096889 148.081778c2.8672 4.881067 3.6864 10.695111 2.264178 16.167822a21.410702 21.410702 0 0 1-9.8304 13.038933 21.275307 21.275307 0 0 1-10.786134 2.935467z m47.240534-594.102044c-8.624356 0-16.395378-5.199644-19.694934-13.175467-3.299556-7.964444-1.479111-17.134933 4.619378-23.2448 43.542756-43.554133 43.542756-114.437689 0-158.014578-43.554133-43.554133-114.437689-43.554133-158.014578 0-8.328533 8.328533-21.833956 8.328533-30.162488 0s-8.328533-21.845333 0-30.162489c60.199822-60.199822 158.151111-60.199822 218.350933 0 60.188444 60.2112 60.188444 158.162489 0 218.350934a21.357227 21.357227 0 0 1-15.098311 6.2464z m-789.185422 0c-5.654756 0.011378-11.081956-2.241422-15.075556-6.2464-29.172622-29.161244-45.238044-67.925333-45.238044-109.1584 0-41.244444 16.065422-80.008533 45.238044-109.192534 60.199822-60.199822 158.151111-60.199822 218.350933 0 8.328533 8.328533 8.328533 21.833956 0 30.162489s-21.833956 8.328533-30.162489 0c-43.565511-43.565511-114.449067-43.554133-158.014577 0-21.117156 21.117156-32.745244 49.186133-32.745245 79.030045a110.913991 110.913991 0 0 0 32.733867 78.984533 21.356089 21.356089 0 0 1 4.630755 23.2448c-3.310933 7.964444-11.093333 13.164089-19.717688 13.175467z m0 0" fill="#4F46A3" p-id="1518"></path><path d="M906.251378 349.149867c-5.654756 0.011378-11.093333-2.241422-15.086934-6.2464l-188.177066-188.188445c-8.328533-8.328533-8.328533-21.833956 0-30.162489s21.833956-8.328533 30.162489 0l188.177066 188.177067a21.34016 21.34016 0 0 1 4.630756 23.2448 21.318542 21.318542 0 0 1-19.706311 13.175467z m-789.185422 0c-8.624356 0.011378-16.406756-5.188267-19.717689-13.164089a21.332196 21.332196 0 0 1 4.630755-23.2448l188.177067-188.177067c8.328533-8.328533 21.833956-8.328533 30.162489 0s8.328533 21.833956 0 30.162489l-188.188445 188.177067c-3.970844 4.004978-9.398044 6.2464-15.064177 6.2464z m0 0" fill="#4F46A3" p-id="1519"></path><path d="M335.371378 530.705067c-5.654756 0-11.081956-2.2528-15.086934-6.2464a21.378844 21.378844 0 0 1-6.2464-15.086934c0-59.039289 27.147378-113.197511 74.478934-148.593777 9.432178-7.054222 22.801067-5.131378 29.855289 4.3008 7.054222 9.432178 5.12 22.801067-4.312178 29.855288-36.4544 27.272533-57.366756 68.972089-57.366756 114.437689a21.331058 21.331058 0 0 1-21.321955 21.333334z m0 0" fill="#FFFFFF" p-id="1520"></path></svg>